<mxfile host="app.diagrams.net" modified="2023-03-15T06:14:59.034Z" agent="5.0 (Macintosh; Intel Mac OS X 10_15_7) AppleWebKit/537.36 (KHTML, like Gecko) Chrome/110.0.0.0 Safari/537.36" etag="0lWrGJhcp2xm6gGqOwge" version="21.0.6" type="github">
  <diagram id="prtHgNgQTEPvFCAcTncT" name="Page-1">
    <mxGraphModel dx="961" dy="532" grid="1" gridSize="10" guides="1" tooltips="1" connect="1" arrows="1" fold="1" page="1" pageScale="1" pageWidth="827" pageHeight="1169" math="0" shadow="0">
      <root>
        <mxCell id="0" />
        <mxCell id="1" parent="0" />
        <mxCell id="s4luUJx8VMpu-1iG3OxT-1" value="&lt;p&gt;&lt;br&gt;&lt;/p&gt;" style="rounded=1;whiteSpace=wrap;html=1;fillColor=#d5e8d4;strokeColor=none;" vertex="1" parent="1">
          <mxGeometry x="340" y="290" width="340" height="160" as="geometry" />
        </mxCell>
        <mxCell id="s4luUJx8VMpu-1iG3OxT-2" value="&lt;p style=&quot;border-color: var(--border-color);&quot;&gt;Spring Container&lt;/p&gt;&lt;p style=&quot;border-color: var(--border-color);&quot;&gt;&lt;br style=&quot;border-color: var(--border-color);&quot;&gt;&lt;/p&gt;" style="text;html=1;align=center;verticalAlign=middle;resizable=0;points=[];autosize=1;strokeColor=none;fillColor=none;" vertex="1" parent="1">
          <mxGeometry x="470" y="280" width="110" height="80" as="geometry" />
        </mxCell>
        <mxCell id="s4luUJx8VMpu-1iG3OxT-3" value="&lt;p&gt;Beans&lt;/p&gt;" style="rounded=1;whiteSpace=wrap;html=1;strokeColor=none;arcSize=17;" vertex="1" parent="1">
          <mxGeometry x="360" y="380" width="100" height="50" as="geometry" />
        </mxCell>
        <mxCell id="s4luUJx8VMpu-1iG3OxT-4" value="&lt;p&gt;Core&lt;/p&gt;" style="rounded=1;whiteSpace=wrap;html=1;strokeColor=none;arcSize=17;" vertex="1" parent="1">
          <mxGeometry x="470" y="380" width="90" height="50" as="geometry" />
        </mxCell>
        <mxCell id="s4luUJx8VMpu-1iG3OxT-5" value="&lt;p&gt;Contex&lt;/p&gt;" style="rounded=1;whiteSpace=wrap;html=1;strokeColor=none;arcSize=17;" vertex="1" parent="1">
          <mxGeometry x="360" y="320" width="200" height="50" as="geometry" />
        </mxCell>
        <mxCell id="s4luUJx8VMpu-1iG3OxT-6" value="&lt;p&gt;SpEL&lt;br&gt;&lt;/p&gt;" style="rounded=1;whiteSpace=wrap;html=1;strokeColor=none;arcSize=17;" vertex="1" parent="1">
          <mxGeometry x="570" y="320" width="90" height="110" as="geometry" />
        </mxCell>
      </root>
    </mxGraphModel>
  </diagram>
</mxfile>
